/vscmnt/brussel_pixiu_data/_data_brussel/112/vsc11236/PredSimResults/SUBJ04mtu3D/worker4.mot
version=1
nRows=4
nColumns=50
inDegrees=yes
endheader
                time	         pelvis_tilt	         pelvis_list	     pelvis_rotation	           pelvis_tx	           pelvis_ty	           pelvis_tz	       hip_flexion_r	     hip_adduction_r	      hip_rotation_r	        knee_angle_r	       ankle_angle_r	         mtp_angle_r	       hip_flexion_l	     hip_adduction_l	      hip_rotation_l	        knee_angle_l	       ankle_angle_l	         mtp_angle_l	    lumbar_extension	      lumbar_bending	     lumbar_rotation	 ercspn_r/activation	 intobl_r/activation	 extobl_r/activation	    abd_r/activation	    add_r/activation	hamstrings_r/activation	bifemsh_r/activation	glut_max_r/activation	iliopsoas_r/activation	rect_fem_r/activation	  vasti_r/activation	gastroc_r/activation	 soleus_r/activation	tib_ant_r/activation	 ercspn_l/activation	 intobl_l/activation	 extobl_l/activation	    abd_l/activation	    add_l/activation	hamstrings_l/activation	bifemsh_l/activation	glut_max_l/activation	iliopsoas_l/activation	rect_fem_l/activation	  vasti_l/activation	gastroc_l/activation	 soleus_l/activation	tib_ant_l/activation	
          1.30358572	         -2.12119007	          0.60091663	          8.69462971	          1.22537058	          0.88113612	         -0.01172884	         29.36541080	         -3.76142027	        -10.69801328	        -11.98481672	          4.19916323	          0.23689878	        -12.76850562	         -0.35245658	         -7.91093907	         -7.88025073	         12.75502621	         21.08016932	        -13.71105030	         -3.46949670	         -7.77823940	          0.04041433	          0.22420455	          0.01773846	          0.01011477	          0.29517334	          0.06087321	          0.02997851	          0.03251124	          0.15505572	          0.03253203	          0.03130194	          0.01000003	          0.01000003	          0.32051621	          0.04193567	          0.01000000	          0.01000000	          0.05436711	          0.01000010	          0.02509346	          0.17584185	          0.01481731	          0.01217290	          0.01000016	          0.01000002	          0.24358754	          0.24777758	          0.01000000	
          1.31662158	         -2.21401014	          0.57584398	          8.47432514	          1.24095719	          0.87898970	         -0.01129860	         29.21375900	         -3.62661385	        -10.80313775	        -13.32387071	          4.01280832	          0.22339449	        -13.46084728	         -0.49247403	         -8.55753476	         -8.38204420	         12.38701751	         22.51739612	        -13.21431468	         -2.87649228	         -7.88587204	          0.03320096	          0.23067199	          0.01457240	          0.02281156	          0.24248917	          0.06136392	          0.02462788	          0.03819033	          0.12738049	          0.02672553	          0.02571507	          0.01217280	          0.01436505	          0.34669776	          0.03701801	          0.01000000	          0.01000003	          0.04466336	          0.01000019	          0.02061491	          0.14445661	          0.01217265	          0.01000027	          0.01000003	          0.01000005	          0.20489708	          0.24113982	          0.00999999	
          1.32965743	         -2.29253676	          0.49414913	          8.20283970	          1.25682737	          0.87707891	         -0.01078187	         29.00416410	         -3.46196736	        -10.92398747	        -14.55187789	          3.60899454	          0.21706691	        -14.06987569	         -0.70125340	         -9.24139592	         -9.08702212	         11.93464810	         23.97768854	        -12.69558584	         -2.20045444	         -7.96199284	          0.02838409	          0.18950036	          0.01197144	          0.04086064	          0.23034993	          0.06519768	          0.02023227	          0.03137393	          0.10464489	          0.02195541	          0.08227929	          0.01000014	          0.01180110	          0.37378356	          0.04687134	          0.00999999	          0.01000000	          0.03669159	          0.01000006	          0.01693558	          0.11867318	          0.01000002	          0.01481724	          0.01000011	          0.01000003	          0.16832588	          0.22574446	          0.01000000	
          1.34269329	         -2.35723628	          0.37670370	          7.87955376	          1.27284682	          0.87557825	         -0.01014844	         28.74590914	         -3.26867593	        -11.14495308	        -15.69867005	          3.19625250	          0.19490604	        -14.53436301	         -0.96741912	         -9.96092109	        -10.08618513	         11.34815725	         25.47435907	        -12.17755574	         -1.47144791	         -8.00381676	          0.03343249	          0.15567726	          0.01000000	          0.05987266	          0.20763519	          0.06609715	          0.01662120	          0.02577417	          0.08596728	          0.01803668	          0.15030560	          0.01000006	          0.01000002	          0.39879551	          0.05497974	          0.00999999	          0.01000000	          0.03014267	          0.01000006	          0.01391318	          0.09749173	          0.01000001	          0.01217268	          0.01000008	          0.01000002	          0.13828212	          0.20584191	          0.01000000	
